<?xml version="1.0" standalone="no"?>
<!DOCTYPE svg PUBLIC "-//W3C//DTD SVG 20010904//EN"
 "http://www.w3.org/TR/2001/REC-SVG-20010904/DTD/svg10.dtd">
<svg version="1.0" xmlns="http://www.w3.org/2000/svg"
 width="1280.000000pt" height="1280.000000pt" viewBox="0 0 1280.000000 1280.000000"
 preserveAspectRatio="xMidYMid meet">
<metadata>
Created by potrace 1.15, written by Peter Selinger 2001-2017
</metadata>
<g transform="translate(0.000000,1280.000000) scale(0.100000,-0.100000)"
fill="#000000" stroke="none">
<path d="M6390 12796 c0 -2 -58 -357 -129 -788 -71 -430 -142 -862 -158 -958
l-28 -175 -40 -3 c-391 -26 -904 -147 -1315 -312 -599 -239 -1190 -650 -1626
-1131 -643 -708 -1037 -1564 -1148 -2494 -9 -71 -17 -148 -18 -170 l-3 -40
-230 -37 c-1062 -174 -1689 -279 -1694 -283 -2 -3 -2 -7 1 -10 4 -4 715 -123
1688 -282 l235 -39 3 -39 c1 -22 9 -98 18 -170 85 -713 336 -1380 745 -1985
272 -401 623 -770 1012 -1063 632 -476 1379 -777 2162 -871 72 -9 148 -17 170
-18 l40 -3 28 -175 c119 -734 288 -1744 292 -1748 3 -3 7 -3 10 0 4 4 123 715
282 1688 l39 235 39 3 c392 26 904 147 1315 312 599 239 1190 650 1626 1131
643 708 1037 1564 1148 2494 9 72 17 148 18 170 l3 40 175 28 c734 119 1744
288 1748 292 3 3 3 7 0 10 -4 4 -715 123 -1688 282 l-235 39 -3 39 c-1 22 -9
99 -18 170 -85 713 -336 1380 -745 1985 -272 401 -623 770 -1012 1063 -632
476 -1379 777 -2162 871 -71 9 -148 17 -170 18 l-40 3 -28 175 c-16 96 -87
528 -158 958 -71 431 -129 786 -129 788 0 2 -4 4 -10 4 -5 0 -10 -2 -10 -4z
m-320 -1940 c0 -2 -41 -251 -90 -553 -50 -301 -113 -683 -140 -848 -27 -165
-94 -574 -150 -909 -55 -334 -100 -617 -100 -628 0 -14 -5 -18 -15 -14 -9 3
-535 378 -1170 833 l-1154 828 42 44 c23 24 92 87 152 140 722 636 1624 1023
2570 1104 22 2 43 4 48 5 4 1 7 0 7 -2z m880 -22 c699 -82 1420 -358 2000
-766 197 -139 445 -343 557 -459 l42 -44 -1155 -828 c-635 -455 -1161 -830
-1169 -833 -10 -4 -15 0 -15 14 0 11 -45 294 -100 628 -56 335 -123 744 -150
909 -27 165 -90 547 -140 848 -49 302 -90 550 -90 552 0 3 66 -3 220 -21z
m-2871 -2461 c446 -623 814 -1139 817 -1148 4 -10 0 -15 -14 -15 -11 0 -334
-52 -718 -115 -385 -64 -820 -136 -969 -160 -148 -24 -490 -80 -758 -125 -268
-44 -489 -80 -491 -80 -9 0 28 310 55 460 28 158 90 410 139 564 203 633 576
1262 1019 1718 74 77 74 77 91 55 9 -12 382 -531 829 -1154z m5670 982 c601
-684 982 -1528 1085 -2405 19 -157 24 -220 20 -220 -2 0 -236 38 -521 85 -285
47 -626 103 -758 125 -132 22 -554 91 -939 155 -384 63 -707 115 -718 115 -14
0 -18 5 -14 15 3 9 378 535 833 1170 l828 1154 44 -42 c24 -23 87 -91 140
-152z m-7282 -3370 c285 -47 626 -103 758 -125 132 -22 554 -91 939 -155 384
-63 707 -115 718 -115 14 0 18 -5 14 -15 -3 -9 -378 -535 -833 -1170 l-828
-1154 -44 42 c-60 58 -222 244 -307 352 -499 635 -825 1418 -918 2205 -19 157
-24 220 -20 220 2 0 236 -38 521 -85z m8386 38 c-52 -577 -192 -1079 -443
-1588 -185 -376 -385 -676 -661 -990 -53 -60 -116 -129 -140 -152 l-44 -42
-828 1154 c-455 635 -830 1161 -833 1170 -4 10 0 15 14 15 11 0 321 50 689
110 367 61 889 147 1158 191 270 44 618 102 775 129 157 26 292 48 301 49 14
1 16 -7 12 -46z m-5263 -1142 c0 -10 45 -293 100 -627 56 -335 123 -744 150
-909 27 -165 90 -547 140 -848 49 -302 90 -550 90 -552 0 -3 -67 3 -220 21
-878 104 -1724 485 -2405 1085 -60 53 -129 116 -152 140 l-42 44 1161 833
c639 457 1165 832 1170 832 4 0 8 -9 8 -19z m2805 -818 l1154 -828 -42 -44
c-58 -60 -244 -222 -352 -307 -404 -317 -900 -582 -1384 -738 -156 -51 -398
-111 -561 -141 -162 -29 -480 -69 -480 -59 0 2 38 236 85 521 47 285 103 626
125 758 22 132 91 554 155 939 63 384 115 707 115 718 0 14 5 18 15 14 9 -3
535 -378 1170 -833z"/>
</g>
</svg>
