<?xml version="1.0" standalone="no"?>
<!DOCTYPE svg PUBLIC "-//W3C//DTD SVG 20010904//EN"
 "http://www.w3.org/TR/2001/REC-SVG-20010904/DTD/svg10.dtd">
<svg version="1.0" xmlns="http://www.w3.org/2000/svg"
 width="1280.000000pt" height="1280.000000pt" viewBox="0 0 1280.000000 1280.000000"
 preserveAspectRatio="xMidYMid meet">
<metadata>
Created by potrace 1.15, written by Peter Selinger 2001-2017
</metadata>
<g transform="translate(0.000000,1280.000000) scale(0.100000,-0.100000)"
fill="#000000" stroke="none">
<path d="M6322 12779 c-25 -12 -55 -39 -70 -62 l-27 -40 -3 -293 -3 -292 -62
-6 c-34 -3 -129 -10 -212 -16 -1316 -95 -2585 -676 -3544 -1623 -1002 -990
-1589 -2277 -1682 -3684 l-12 -183 -264 0 c-297 0 -335 -6 -387 -56 -85 -83
-64 -228 41 -280 34 -17 66 -19 324 -22 l286 -3 7 -122 c73 -1279 550 -2458
1390 -3432 109 -126 379 -398 516 -520 956 -847 2141 -1340 3425 -1425 83 -5
156 -10 163 -10 9 0 12 -63 12 -282 0 -254 2 -287 19 -324 60 -132 240 -137
313 -9 23 39 23 46 23 327 l0 287 85 6 c424 29 614 54 926 121 1376 293 2589
1085 3423 2233 552 759 912 1668 1031 2601 23 181 40 385 40 481 l0 68 298 3
c290 3 298 4 334 26 115 72 110 249 -9 308 -34 17 -67 19 -330 22 l-293 3 0
68 c0 37 -5 126 -10 197 -97 1226 -582 2374 -1400 3309 -976 1117 -2399 1824
-3865 1920 -49 3 -121 8 -160 11 l-70 5 3 242 c4 285 0 331 -35 385 -49 76
-142 102 -221 61z m-102 -2113 l0 -713 -87 -7 c-1089 -84 -2066 -650 -2678
-1550 -282 -415 -472 -881 -560 -1376 -21 -120 -45 -325 -45 -387 l0 -53 -715
0 c-565 0 -715 3 -715 13 0 46 23 313 36 417 164 1340 872 2559 1958 3375 797
597 1739 936 2746 988 30 2 56 4 58 5 1 1 2 -319 2 -712z m605 693 c1174 -95
2292 -624 3131 -1480 678 -693 1135 -1559 1323 -2504 49 -245 91 -587 91 -737
l0 -58 -709 0 -709 0 -7 68 c-32 356 -79 586 -179 887 -444 1330 -1650 2282
-3050 2406 l-136 12 -2 710 c-2 390 -2 709 -1 710 3 3 117 -3 248 -14z m-605
-2764 l0 -645 -22 -4 c-13 -3 -63 -13 -113 -22 -172 -32 -379 -116 -534 -217
-358 -233 -599 -591 -682 -1015 l-22 -112 -645 0 -645 0 8 83 c46 538 262
1074 607 1510 98 123 321 348 438 441 384 305 812 500 1280 585 100 18 234 35
308 40 l22 1 0 -645z m585 619 c1040 -143 1937 -885 2280 -1885 74 -215 125
-452 143 -656 l8 -93 -646 0 -647 0 -12 81 c-59 389 -306 779 -640 1014 -171
119 -397 216 -590 251 -48 9 -95 17 -106 19 -20 4 -20 11 -17 650 l2 646 58
-6 c31 -3 107 -13 167 -21z m-3955 -3047 c0 -62 24 -267 45 -387 238 -1337
1225 -2431 2525 -2798 249 -70 462 -109 713 -128 l87 -7 0 -711 0 -712 -67 3
c-929 44 -1847 358 -2613 897 -1091 766 -1838 1949 -2054 3251 -28 167 -66
531 -66 633 0 9 150 12 715 12 l715 0 0 -53z m2019 -59 c123 -624 612 -1117
1221 -1233 47 -9 95 -18 108 -21 l22 -4 0 -645 c0 -355 -3 -645 -7 -645 -107
3 -360 44 -523 86 -831 213 -1533 801 -1885 1581 -126 280 -215 615 -240 911
l-8 82 645 0 645 0 22 -112z m4359 20 c-31 -360 -152 -757 -330 -1083 -348
-637 -921 -1117 -1605 -1344 -210 -70 -410 -111 -655 -135 l-58 -6 -2 645 c-3
639 -3 646 17 650 11 2 60 11 109 20 417 77 806 355 1034 735 92 154 167 360
193 529 l12 81 647 0 646 0 -8 -92z m2142 40 c0 -29 -5 -107 -10 -173 -103
-1209 -618 -2305 -1481 -3151 -398 -389 -815 -683 -1314 -925 -467 -227 -962
-378 -1466 -448 -236 -33 -519 -54 -519 -38 0 4 0 324 0 711 l0 703 138 12
c164 15 373 50 537 90 1170 288 2130 1173 2511 2316 100 301 147 531 179 888
l7 67 709 0 709 0 0 -52z"/>
</g>
</svg>
