<svg width="575" height="298" viewBox="0 0 575 298" fill="none" xmlns="http://www.w3.org/2000/svg">
<path fill-rule="evenodd" clip-rule="evenodd" d="M43.119 289.676C33.3693 299.437 17.5619 299.437 7.81226 289.676C-1.93742 279.916 -1.93742 264.091 7.81225 254.33L253.547 8.32044C263.296 -1.44014 279.104 -1.44016 288.854 8.32043C290.242 9.71052 291.433 11.2236 292.426 12.8247L408.484 129.012L528.881 8.47984C538.631 -1.28075 554.438 -1.28075 564.188 8.47984C573.938 18.2404 573.938 34.0655 564.188 43.826L426.492 181.676C426.279 181.89 426.063 182.098 425.844 182.302C416.074 191.782 400.477 191.689 390.821 182.023L270.737 61.8037L43.119 289.676Z" fill="url(#paint0_linear_374_7612)"/>
<circle cx="545.5" cy="27" r="20" transform="rotate(-90 545.5 27)" fill="#232333"/>
<defs>
<linearGradient id="paint0_linear_374_7612" x1="0.5" y1="159.322" x2="571.5" y2="159.322" gradientUnits="userSpaceOnUse">
<stop stop-color="#57E5B2"/>
<stop offset="0.48" stop-color="#ADABFF"/>
<stop offset="1" stop-color="#FF9750"/>
</linearGradient>
</defs>
</svg>
