<svg width="20" height="20" viewBox="0 0 20 20" fill="none" xmlns="http://www.w3.org/2000/svg">
<path d="M0 10C0 4.47715 4.47715 0 10 0C15.5228 0 20 4.47715 20 10C20 15.5228 15.5228 20 10 20C4.47715 20 0 15.5228 0 10Z" fill="#57E5B2"/>
<path d="M9 12L8.29289 12.7071L9 13.4142L9.70711 12.7071L9 12ZM13.7071 8.70711C14.0976 8.31658 14.0976 7.68342 13.7071 7.29289C13.3166 6.90237 12.6834 6.90237 12.2929 7.29289L13.7071 8.70711ZM7.70711 9.29289C7.31658 8.90237 6.68342 8.90237 6.29289 9.29289C5.90237 9.68342 5.90237 10.3166 6.29289 10.7071L7.70711 9.29289ZM9.70711 12.7071L13.7071 8.70711L12.2929 7.29289L8.29289 11.2929L9.70711 12.7071ZM9.70711 11.2929L7.70711 9.29289L6.29289 10.7071L8.29289 12.7071L9.70711 11.2929Z" fill="#232333"/>
</svg>
