<?xml version="1.0" standalone="no"?><svg xmlns="http://www.w3.org/2000/svg" viewBox="0 0 1440 320"><path fill="#FFFFFF1C" fill-opacity="1" d="M0,256L24,261.3C48,267,96,277,144,272C192,267,240,245,288,197.3C336,149,384,75,432,48C480,21,528,43,576,90.7C624,139,672,213,720,208C768,203,816,117,864,101.3C912,85,960,139,1008,149.3C1056,160,1104,128,1152,112C1200,96,1248,96,1296,128C1344,160,1392,224,1416,256L1440,288L1440,320L1416,320C1392,320,1344,320,1296,320C1248,320,1200,320,1152,320C1104,320,1056,320,1008,320C960,320,912,320,864,320C816,320,768,320,720,320C672,320,624,320,576,320C528,320,480,320,432,320C384,320,336,320,288,320C240,320,192,320,144,320C96,320,48,320,24,320L0,320Z"></path></svg>