<?xml version="1.0" standalone="no"?><svg xmlns="http://www.w3.org/2000/svg" viewBox="0 0 1440 320"><path fill="#fff" fill-opacity="1" d="M0,192L34.3,176C68.6,160,137,128,206,128C274.3,128,343,160,411,149.3C480,139,549,85,617,101.3C685.7,117,754,203,823,202.7C891.4,203,960,117,1029,106.7C1097.1,96,1166,160,1234,192C1302.9,224,1371,224,1406,224L1440,224L1440,320L1405.7,320C1371.4,320,1303,320,1234,320C1165.7,320,1097,320,1029,320C960,320,891,320,823,320C754.3,320,686,320,617,320C548.6,320,480,320,411,320C342.9,320,274,320,206,320C137.1,320,69,320,34,320L0,320Z"></path></svg>